# xmcd CD database file
#
# Track frame offsets:
#	150
#	11747
#	27277
#	39742
#	58044
#	75747
#	87822
#
# Disc length: 1352 seconds
#
# Revision: 0
# Processed by: cddbd v1.5.1PL2 Copyright (c) Steve Scherf et al.
# Submitted via: CDex 1.51
#
DISCID=4e054607
DTITLE=Reverendos - RetroSwing
DYEAR=2006
DGENRE=Blues
TTITLE0=Mr. T-Bone
TTITLE1=She moves me
TTITLE2=That's allright (mama)
TTITLE3=I can't hold out
TTITLE4=One more time
TTITLE5=Shot down
TTITLE6=Can't buy me love
EXTD=YEAR: 2006
EXTT0=
EXTT1=
EXTT2=
EXTT3=
EXTT4=
EXTT5=
EXTT6=
PLAYORDER=
